<svg width="847" height="500" xmlns="http://www.w3.org/2000/svg" version="1.1"><g><path class="layer" d="M0,338.8767324811621L11.788044718229521,339.0890200441066C23.576089436459043,339.30130760705106,47.152178872918086,339.72588273294,70.69606053692296,340.371682333676C94.23994220092781,341.01748193441205,117.75161609247851,341.88450600999516,141.2632899840292,343.45674675031955C164.7749638755799,345.02898749064394,188.2866377671306,347.3064448957098,211.79831165868129,349.3828496753526C235.30998555023197,351.45925445499535,258.82165944178263,353.3346066092152,282.3655411057875,356.57366904195095C305.9094227697924,359.81273147468664,329.4855122062515,364.4155041859383,353.02939387025634,368.6985841883423C376.5732755342612,372.98166419074636,400.0849494258119,376.9450514843027,423.59662331736257,380.44398251143207C447.10829720891326,383.9429135385613,470.61997110046394,386.97738829926357,494.13164499201457,390.0647421337082C517.6433188835653,393.15209596815276,541.1549927751159,396.2923288763398,564.6988744391208,398.5625579039722C588.2427561031258,400.8327869316045,611.8188455395848,402.2330120786822,635.3627272035897,403.95387230236355C658.9066088675945,405.6747325260449,682.4182827591452,407.71622782633,705.9299566506958,409.09184038910143C729.4416305422466,410.4674529518729,752.9533044337973,411.1771827771306,776.4649783253479,411.9900487289717C799.9766522168987,412.80291468081276,823.4883261084493,413.7189167592372,835.2441630542247,414.1769177984493L847,414.63491883766153L847,480L835.2441630542247,480C823.4883261084493,480,799.9766522168987,480,776.4649783253479,480C752.9533044337973,480,729.4416305422466,480,705.929956650696,480C682.4182827591452,480,658.9066088675945,480,635.3627272035895,480C611.8188455395848,480,588.2427561031258,480,564.6988744391208,480C541.1549927751159,480,517.6433188835653,480,494.1316449920146,480C470.61997110046394,480,447.10829720891326,480,423.5966233173626,480C400.0849494258119,480,376.5732755342612,480,353.02939387025634,480C329.4855122062515,480,305.9094227697924,480,282.3655411057875,480C258.82165944178263,480,235.30998555023197,480,211.79831165868129,480C188.2866377671306,480,164.7749638755799,480,141.2632899840292,480C117.75161609247851,480,94.23994220092781,480,70.69606053692296,480C47.152178872918086,480,23.576089436459043,480,11.788044718229521,480L0,480Z" fill="rgb(191, 105, 105)" title="TV"></path><path class="layer" d="M0,301.1058920287043L11.788044718229521,301.46481850156596C23.576089436459043,301.8237449744275,47.152178872918086,302.5415979201507,70.69606053692296,303.7407019375881C94.23994220092781,304.9398059550255,117.75161609247851,306.6201610441772,141.2632899840292,308.8935428619625C164.7749638755799,311.1669246797477,188.2866377671306,314.0333332261665,211.79831165868129,316.7461191583136C235.30998555023197,319.45890509046063,258.82165944178263,322.01806840833586,282.3655411057875,326.0410253994612C305.9094227697924,330.06398239058643,329.4855122062515,335.55073305496177,353.02939387025634,340.8661780381664C376.5732755342612,346.1816230213711,400.0849494258119,351.3257623234052,423.59662331736257,355.69924808675336C447.10829720891326,360.07273385010154,470.61997110046394,363.6755660747638,494.13164499201457,367.7484772166663C517.6433188835653,371.82138835856875,541.1549927751159,376.3643784177114,564.6988744391208,379.74802219983894C588.2427561031258,383.13166598196653,611.8188455395848,385.355963487079,635.3627272035897,387.67028410093957C658.9066088675945,389.98460471480007,682.4182827591452,392.3889484374086,705.9299566506958,394.10416199649535C729.4416305422466,395.819375555582,752.9533044337973,396.8454589511469,776.4649783253479,397.97325596962145C799.9766522168987,399.10105298809594,823.4883261084493,400.33056362948014,835.2441630542247,400.9453189501722L847,401.5600742708643L847,414.63491883766153L835.2441630542247,414.1769177984493C823.4883261084493,413.7189167592372,799.9766522168987,412.80291468081276,776.4649783253479,411.9900487289717C752.9533044337973,411.1771827771306,729.4416305422466,410.4674529518729,705.929956650696,409.09184038910143C682.4182827591452,407.71622782633,658.9066088675945,405.6747325260449,635.3627272035895,403.95387230236355C611.8188455395848,402.2330120786822,588.2427561031258,400.8327869316045,564.6988744391208,398.5625579039722C541.1549927751159,396.2923288763398,517.6433188835653,393.15209596815276,494.1316449920146,390.0647421337082C470.61997110046394,386.97738829926357,447.10829720891326,383.9429135385613,423.5966233173626,380.443982511432C400.0849494258119,376.9450514843027,376.5732755342612,372.98166419074636,353.02939387025634,368.6985841883423C329.4855122062515,364.4155041859383,305.9094227697924,359.81273147468664,282.3655411057875,356.57366904195095C258.82165944178263,353.3346066092152,235.30998555023197,351.45925445499535,211.79831165868129,349.3828496753525C188.2866377671306,347.3064448957098,164.7749638755799,345.02898749064394,141.2632899840292,343.45674675031955C117.75161609247851,341.88450600999516,94.23994220092781,341.01748193441205,70.69606053692296,340.37168233367606C47.152178872918086,339.72588273294,23.576089436459043,339.30130760705106,11.788044718229521,339.0890200441066L0,338.8767324811621Z" fill="rgb(191, 191, 105)" title="Radio"></path><path class="layer" d="M0,243.357871386622L11.788044718229521,244.63158851807728C23.576089436459043,245.9053056495326,47.152178872918086,248.45273991244323,70.69606053692296,251.57680817739364C94.23994220092781,254.70087644234403,117.75161609247851,258.4015787093342,141.2632899840292,262.6464259257075C164.7749638755799,266.89127314208076,188.2866377671306,271.6802653078371,211.79831165868129,276.60254620589234C235.30998555023197,281.52482710394753,258.82165944178263,286.5803967343017,282.3655411057875,292.77248069214687C305.9094227697924,298.964564649992,329.4855122062515,306.29316293532816,353.02939387025634,313.5482030517547C376.5732755342612,320.80324316818127,400.0849494258119,327.98472511569815,423.59662331736257,334.07860992573575C447.10829720891326,340.17249473577334,470.61997110046394,345.17878240833153,494.13164499201457,350.692791129161C517.6433188835653,356.20679984999043,541.1549927751159,362.2285296190912,564.6988744391208,366.9118847339259C588.2427561031258,371.5952398487605,611.8188455395848,374.9402203093291,635.3627272035897,378.1003383805853C658.9066088675945,381.26045645184166,682.4182827591452,384.2357121337856,705.9299566506958,386.5036309257714C729.4416305422466,388.7715497177572,752.9533044337973,390.3321316197848,776.4649783253479,391.98837093657403C799.9766522168987,393.6446102533633,823.4883261084493,395.3965069849143,835.2441630542247,396.27245535068977L847,397.1484037164652L847,401.5600742708643L835.2441630542247,400.9453189501722C823.4883261084493,400.33056362948014,799.9766522168987,399.10105298809594,776.4649783253479,397.97325596962145C752.9533044337973,396.8454589511469,729.4416305422466,395.819375555582,705.929956650696,394.1041619964953C682.4182827591452,392.3889484374086,658.9066088675945,389.98460471480007,635.3627272035895,387.67028410093957C611.8188455395848,385.355963487079,588.2427561031258,383.13166598196653,564.6988744391208,379.74802219983894C541.1549927751159,376.3643784177114,517.6433188835653,371.82138835856875,494.1316449920146,367.74847721666634C470.61997110046394,363.6755660747638,447.10829720891326,360.07273385010154,423.5966233173626,355.6992480867534C400.0849494258119,351.3257623234052,376.5732755342612,346.1816230213711,353.02939387025634,340.8661780381664C329.4855122062515,335.55073305496177,305.9094227697924,330.06398239058643,282.3655411057875,326.0410253994612C258.82165944178263,322.01806840833586,235.30998555023197,319.45890509046063,211.79831165868129,316.7461191583136C188.2866377671306,314.0333332261665,164.7749638755799,311.1669246797477,141.2632899840292,308.8935428619625C117.75161609247851,306.6201610441772,94.23994220092781,304.9398059550255,70.69606053692296,303.74070193758814C47.152178872918086,302.5415979201507,23.576089436459043,301.8237449744275,11.788044718229521,301.4648185015659L0,301.1058920287043Z" fill="rgb(105, 191, 105)" title="Newspapers"></path><path class="layer" d="M0,198.4816138355236L11.788044718229521,200.2204433757753C23.576089436459043,201.95927291602698,47.152178872918086,205.43693199653035,70.69606053692296,209.91443998774716C94.23994220092781,214.39194797896394,117.75161609247851,219.8693048808942,141.2632899840292,225.86187322726354C164.7749638755799,231.8544415736329,188.2866377671306,238.36222136444133,211.79831165868129,244.99823042769833C235.30998555023197,251.63423949095537,258.82165944178263,258.3984778266609,282.3655411057875,266.201222781197C305.9094227697924,274.00396773573306,329.4855122062515,282.84521930909955,353.02939387025634,291.5054417659966C376.5732755342612,300.1656642228936,400.0849494258119,308.64485756332124,423.59662331736257,315.9030180838135C447.10829720891326,323.16117860430575,470.61997110046394,329.1983063048627,494.13164499201457,335.5529027706923C517.6433188835653,341.9074992365219,541.1549927751159,348.57956446762415,564.6988744391208,354.0578789097313C588.2427561031258,359.53619335183856,611.8188455395848,363.8207570049506,635.3627272035897,367.73911993235083C658.9066088675945,371.65748285975104,682.4182827591452,375.2096450614394,705.9299566506958,378.0351803826732C729.4416305422466,380.86071570390703,752.9533044337973,382.9596241446862,776.4649783253479,385.1482513488406C799.9766522168987,387.33687855299496,823.4883261084493,389.6152245205246,835.2441630542247,390.75439750428933L847,391.89357048805414L847,397.1484037164652L835.2441630542247,396.27245535068977C823.4883261084493,395.3965069849143,799.9766522168987,393.6446102533633,776.4649783253479,391.98837093657403C752.9533044337973,390.3321316197848,729.4416305422466,388.7715497177572,705.929956650696,386.5036309257714C682.4182827591452,384.2357121337856,658.9066088675945,381.26045645184166,635.3627272035895,378.10033838058536C611.8188455395848,374.9402203093291,588.2427561031258,371.5952398487605,564.6988744391208,366.9118847339258C541.1549927751159,362.2285296190912,517.6433188835653,356.20679984999043,494.1316449920146,350.692791129161C470.61997110046394,345.17878240833153,447.10829720891326,340.17249473577334,423.5966233173626,334.07860992573575C400.0849494258119,327.98472511569815,376.5732755342612,320.80324316818127,353.02939387025634,313.5482030517547C329.4855122062515,306.29316293532816,305.9094227697924,298.964564649992,282.3655411057875,292.7724806921468C258.82165944178263,286.5803967343017,235.30998555023197,281.52482710394753,211.79831165868129,276.60254620589234C188.2866377671306,271.6802653078371,164.7749638755799,266.89127314208076,141.2632899840292,262.6464259257075C117.75161609247851,258.4015787093342,94.23994220092781,254.70087644234403,70.69606053692296,251.57680817739364C47.152178872918086,248.45273991244323,23.576089436459043,245.9053056495326,11.788044718229521,244.63158851807734L0,243.357871386622Z" fill="rgb(105, 191, 191)" title="Magazines"></path><path class="layer" d="M0,131.52087665139555L11.788044718229521,133.97305074383542C23.576089436459043,136.42522483627525,47.152178872918086,141.3295730211549,70.69606053692296,146.72342467046144C94.23994220092781,152.1172763197679,117.75161609247851,158.00063143350124,141.2632899840292,164.77195033578894C164.7749638755799,171.54326923807662,188.2866377671306,179.20255192891872,211.79831165868129,187.46504304542336C235.30998555023197,195.72753416192802,258.82165944178263,204.59323370409527,282.3655411057875,214.47194000688185C305.9094227697924,224.3506463096684,329.4855122062515,235.24235937307427,353.02939387025634,245.76546897052768C376.5732755342612,256.288578567981,400.0849494258119,266.4430846994819,423.59662331736257,275.2098952509625C447.10829720891326,283.9767058024431,470.61997110046394,291.35582077390353,494.13164499201457,299.0155196402983C517.6433188835653,306.67521850669317,541.1549927751159,314.6155012680224,564.6988744391208,321.14372406863384C588.2427561031258,327.67194686924523,611.8188455395848,332.78810970913884,635.3627272035897,337.4557625503664C658.9066088675945,342.1234153915939,682.4182827591452,346.34255823415515,705.9299566506958,349.79159433331535C729.4416305422466,353.2406304324756,752.9533044337973,355.9195597882346,776.4649783253479,358.6857490764099C799.9766522168987,361.4519383645852,823.4883261084493,364.3053875851768,835.2441630542247,365.7321121954726L847,367.15883680576843L847,391.89357048805414L835.2441630542247,390.75439750428933C823.4883261084493,389.6152245205246,799.9766522168987,387.33687855299496,776.4649783253479,385.1482513488406C752.9533044337973,382.9596241446862,729.4416305422466,380.86071570390703,705.929956650696,378.03518038267316C682.4182827591452,375.2096450614394,658.9066088675945,371.65748285975104,635.3627272035895,367.73911993235083C611.8188455395848,363.8207570049506,588.2427561031258,359.53619335183856,564.6988744391208,354.0578789097314C541.1549927751159,348.57956446762415,517.6433188835653,341.9074992365219,494.1316449920146,335.5529027706923C470.61997110046394,329.1983063048627,447.10829720891326,323.16117860430575,423.5966233173626,315.9030180838135C400.0849494258119,308.64485756332124,376.5732755342612,300.1656642228936,353.02939387025634,291.5054417659966C329.4855122062515,282.84521930909955,305.9094227697924,274.00396773573306,282.3655411057875,266.201222781197C258.82165944178263,258.3984778266609,235.30998555023197,251.63423949095537,211.79831165868129,244.99823042769833C188.2866377671306,238.36222136444133,164.7749638755799,231.8544415736329,141.2632899840292,225.86187322726354C117.75161609247851,219.8693048808942,94.23994220092781,214.39194797896394,70.69606053692296,209.91443998774716C47.152178872918086,205.43693199653035,23.576089436459043,201.95927291602698,11.788044718229521,200.2204433757753L0,198.4816138355236Z" fill="rgb(105, 105, 191)" title="Other"></path><path class="layer" d="M0,0L11.788044718229521,0C23.576089436459043,0,47.152178872918086,0,70.69606053692296,0C94.23994220092781,0,117.75161609247851,0,141.2632899840292,0C164.7749638755799,0,188.2866377671306,0,211.79831165868129,0C235.30998555023197,0,258.82165944178263,0,282.3655411057875,0C305.9094227697924,0,329.4855122062515,0,353.02939387025634,0C376.5732755342612,0,400.0849494258119,0,423.59662331736257,0C447.10829720891326,0,470.61997110046394,0,494.13164499201457,0C517.6433188835653,0,541.1549927751159,0,564.6988744391208,0C588.2427561031258,0,611.8188455395848,0,635.3627272035897,0C658.9066088675945,0,682.4182827591452,0,705.9299566506958,0C729.4416305422466,0,752.9533044337973,0,776.4649783253479,0C799.9766522168987,0,823.4883261084493,0,835.2441630542247,0L847,0L847,367.15883680576843L835.2441630542247,365.7321121954726C823.4883261084493,364.3053875851768,799.9766522168987,361.4519383645852,776.4649783253479,358.6857490764099C752.9533044337973,355.9195597882346,729.4416305422466,353.2406304324756,705.929956650696,349.79159433331535C682.4182827591452,346.34255823415515,658.9066088675945,342.1234153915939,635.3627272035895,337.45576255036633C611.8188455395848,332.78810970913884,588.2427561031258,327.67194686924523,564.6988744391208,321.1437240686338C541.1549927751159,314.6155012680224,517.6433188835653,306.67521850669317,494.1316449920146,299.01551964029835C470.61997110046394,291.35582077390353,447.10829720891326,283.9767058024431,423.5966233173626,275.2098952509625C400.0849494258119,266.4430846994819,376.5732755342612,256.288578567981,353.02939387025634,245.76546897052762C329.4855122062515,235.24235937307427,305.9094227697924,224.3506463096684,282.3655411057875,214.47194000688182C258.82165944178263,204.59323370409527,235.30998555023197,195.72753416192802,211.79831165868129,187.46504304542336C188.2866377671306,179.20255192891872,164.7749638755799,171.54326923807662,141.2632899840292,164.77195033578892C117.75161609247851,158.00063143350124,94.23994220092781,152.1172763197679,70.69606053692296,146.72342467046144C47.152178872918086,141.3295730211549,23.576089436459043,136.42522483627525,11.788044718229521,133.97305074383542L0,131.52087665139555Z" fill="rgb(191, 105, 191)" title="Pure-Play Internet"></path><g class="x axis" transform="translate(0,480)" fill="none" font-size="10" font-family="sans-serif" text-anchor="middle" style="stroke-width: 1px; font-size: 10px; font-family: Arial, Helvetica;"><path class="domain" stroke="#000" d="M0.5,6V0.5H847.5V6" style="shape-rendering: crispedges; fill: none; stroke: rgb(204, 204, 204);"></path><g class="tick" opacity="1" transform="translate(0.5241558293406343,0)"><line stroke="#000" y2="6" style="shape-rendering: crispedges; fill: none; stroke: rgb(204, 204, 204);"></line><text fill="#000" y="9" dy="0.71em">2012</text></g><g class="tick" opacity="1" transform="translate(71.25242413871777,0)"><line stroke="#000" y2="6" style="shape-rendering: crispedges; fill: none; stroke: rgb(204, 204, 204);"></line><text fill="#000" y="9" dy="0.71em">2013</text></g><g class="tick" opacity="1" transform="translate(141.78744581336986,0)"><line stroke="#000" y2="6" style="shape-rendering: crispedges; fill: none; stroke: rgb(204, 204, 204);"></line><text fill="#000" y="9" dy="0.71em">2014</text></g><g class="tick" opacity="1" transform="translate(212.3224674880219,0)"><line stroke="#000" y2="6" style="shape-rendering: crispedges; fill: none; stroke: rgb(204, 204, 204);"></line><text fill="#000" y="9" dy="0.71em">2015</text></g><g class="tick" opacity="1" transform="translate(282.85748916267397,0)"><line stroke="#000" y2="6" style="shape-rendering: crispedges; fill: none; stroke: rgb(204, 204, 204);"></line><text fill="#000" y="9" dy="0.71em">2016</text></g><g class="tick" opacity="1" transform="translate(353.5857574720511,0)"><line stroke="#000" y2="6" style="shape-rendering: crispedges; fill: none; stroke: rgb(204, 204, 204);"></line><text fill="#000" y="9" dy="0.71em">2017</text></g><g class="tick" opacity="1" transform="translate(424.12077914670317,0)"><line stroke="#000" y2="6" style="shape-rendering: crispedges; fill: none; stroke: rgb(204, 204, 204);"></line><text fill="#000" y="9" dy="0.71em">2018</text></g><g class="tick" opacity="1" transform="translate(494.65580082135523,0)"><line stroke="#000" y2="6" style="shape-rendering: crispedges; fill: none; stroke: rgb(204, 204, 204);"></line><text fill="#000" y="9" dy="0.71em">2019</text></g><g class="tick" opacity="1" transform="translate(565.1908224960073,0)"><line stroke="#000" y2="6" style="shape-rendering: crispedges; fill: none; stroke: rgb(204, 204, 204);"></line><text fill="#000" y="9" dy="0.71em">2020</text></g><g class="tick" opacity="1" transform="translate(635.9190908053845,0)"><line stroke="#000" y2="6" style="shape-rendering: crispedges; fill: none; stroke: rgb(204, 204, 204);"></line><text fill="#000" y="9" dy="0.71em">2021</text></g><g class="tick" opacity="1" transform="translate(706.4541124800365,0)"><line stroke="#000" y2="6" style="shape-rendering: crispedges; fill: none; stroke: rgb(204, 204, 204);"></line><text fill="#000" y="9" dy="0.71em">2022</text></g><g class="tick" opacity="1" transform="translate(776.9891341546886,0)"><line stroke="#000" y2="6" style="shape-rendering: crispedges; fill: none; stroke: rgb(204, 204, 204);"></line><text fill="#000" y="9" dy="0.71em">2023</text></g></g><defs><path id="path-0" d="M0,409.43836624058105L11.788044718229521,409.5445100220533C23.576089436459043,409.65065380352553,47.152178872918086,409.86294136647,70.69606053692296,410.1858411668381C94.23994220092781,410.508740967206,117.75161609247851,410.94225300499755,141.2632899840292,411.72837337515983C164.7749638755799,412.51449374532194,188.2866377671306,413.65322244785483,211.79831165868129,414.69142483767627C235.30998555023197,415.7296272274977,258.82165944178263,416.6673033046075,282.3655411057875,418.28683452097545C305.9094227697924,419.9063657373433,329.4855122062515,422.2077520929691,353.02939387025634,424.3492920941712C376.5732755342612,426.4908320953732,400.0849494258119,428.4725257421514,423.59662331736257,430.221991255716C447.10829720891326,431.9714567692807,470.61997110046394,433.4886941496317,494.13164499201457,435.03237106685407C517.6433188835653,436.5760479840764,541.1549927751159,438.14616443816993,564.6988744391208,439.28127895198617C588.2427561031258,440.4163934658023,611.8188455395848,441.1165060393411,635.3627272035897,441.97693615118175C658.9066088675945,442.83736626302243,682.4182827591452,443.85811391316497,705.9299566506958,444.5459201945507C729.4416305422466,445.2337264759364,752.9533044337973,445.58859138856525,776.4649783253479,445.9950243644858C799.9766522168987,446.40145734040635,823.4883261084493,446.8594583796186,835.2441630542247,447.0884588992247L847,447.31745941883077"></path><path id="path-1" d="M0,319.9913122549332L11.788044718229521,320.27691927283627C23.576089436459043,320.5625262907393,47.152178872918086,321.13374032654536,70.69606053692296,322.0561921356321C94.23994220092781,322.97864394471884,117.75161609247851,324.2523335270862,141.2632899840292,326.17514480614096C164.7749638755799,328.09795608519585,188.2866377671306,330.66988906093815,211.79831165868129,333.06448441683307C235.30998555023197,335.459079772728,258.82165944178263,337.67633750877553,282.3655411057875,341.30734722070605C305.9094227697924,344.9383569326366,329.4855122062515,349.98311862045006,353.02939387025634,354.7823811132544C376.5732755342612,359.5816436060588,400.0849494258119,364.13540690385406,423.59662331736257,368.0716152990928C447.10829720891326,372.00782369433153,470.61997110046394,375.3264771870137,494.13164499201457,378.9066096751872C517.6433188835653,382.48674216336076,541.1549927751159,386.3283536470256,564.6988744391208,389.15529005190564C588.2427561031258,391.98222645678555,611.8188455395848,393.7944877828806,635.3627272035897,395.8120782016515C658.9066088675945,397.8296686204225,682.4182827591452,400.0525881318693,705.9299566506958,401.59800119279834C729.4416305422466,403.14341425372737,752.9533044337973,404.0113208641387,776.4649783253479,404.98165234929655C799.9766522168987,405.9519838344543,823.4883261084493,407.0247401943586,835.2441630542247,407.56111837431075L847,408.0974965542629"></path><path id="path-2" d="M0,272.23188170766315L11.788044718229521,273.04820350982163C23.576089436459043,273.86452531198006,47.152178872918086,275.49716891629697,70.69606053692296,277.6587550574909C94.23994220092781,279.82034119868484,117.75161609247851,282.51086987675575,141.2632899840292,285.76998439383505C164.7749638755799,289.02909891091423,188.2866377671306,292.8567992670018,211.79831165868129,296.67433268210294C235.30998555023197,300.4918660972041,258.82165944178263,304.2992325713188,282.3655411057875,309.406753045804C305.9094227697924,314.51427352028924,329.4855122062515,320.921947995145,353.02939387025634,327.2071905449606C376.5732755342612,333.49243309477623,400.0849494258119,339.6552437195517,423.59662331736257,344.88892900624455C447.10829720891326,350.12261429293744,470.61997110046394,354.4271742415477,494.13164499201457,359.22063417291366C517.6433188835653,364.0140941042796,541.1549927751159,369.29645401840133,564.6988744391208,373.3299534668824C588.2427561031258,377.3634529153635,611.8188455395848,380.14809189820403,635.3627272035897,382.8853112407624C658.9066088675945,385.62253058332084,682.4182827591452,388.31233028559706,705.9299566506958,390.3038964611333C729.4416305422466,392.2954626366695,752.9533044337973,393.5887952854658,776.4649783253479,394.9808134530977C799.9766522168987,396.3728316207296,823.4883261084493,397.8635353071972,835.2441630542247,398.608887150431L847,399.35423899366475"></path><path id="path-3" d="M0,220.91974261107276L11.788044718229521,222.42601594692624C23.576089436459043,223.93228928277975,47.152178872918086,226.94483595448673,70.69606053692296,230.74562408257034C94.23994220092781,234.54641221065398,117.75161609247851,239.1354417951142,141.2632899840292,244.2541495764855C164.7749638755799,249.37285735785682,188.2866377671306,255.02124333613918,211.79831165868129,260.8003883167953C235.30998555023197,266.5795332974514,258.82165944178263,272.4894372804813,282.3655411057875,279.4868517366719C305.9094227697924,286.4842661928625,329.4855122062515,294.56919112221385,353.02939387025634,302.52682240887566C376.5732755342612,310.48445369553747,400.0849494258119,318.3147913395097,423.59662331736257,324.9908140047747C447.10829720891326,331.6668366700396,470.61997110046394,337.1885443565971,494.13164499201457,343.12284694992667C517.6433188835653,349.05714954325623,541.1549927751159,355.4040470433577,564.6988744391208,360.48488182182865C588.2427561031258,365.56571660029954,611.8188455395848,369.3804886571399,635.3627272035897,372.91972915646807C658.9066088675945,376.45896965579635,682.4182827591452,379.7226785976125,705.9299566506958,382.2694056542223C729.4416305422466,384.81613271083205,752.9533044337973,386.6458778822355,776.4649783253479,388.5683111427073C799.9766522168987,390.4907444031791,823.4883261084493,392.50586575271944,835.2441630542247,393.51342642748955L847,394.52098710225965"></path><path id="path-4" d="M0,165.0012452434596L11.788044718229521,167.09674705980535C23.576089436459043,169.19224887615113,47.152178872918086,173.38325250884262,70.69606053692296,178.31893232910429C94.23994220092781,183.2546121493659,117.75161609247851,188.9349681571977,141.2632899840292,195.3169117815262C164.7749638755799,201.69885540585474,188.2866377671306,208.78238664668,211.79831165868129,216.23163673656086C235.30998555023197,223.6808868264417,258.82165944178263,231.4958557653781,282.3655411057875,240.33658139403943C305.9094227697924,249.1773070227007,329.4855122062515,259.0437893410869,353.02939387025634,268.6354553682621C376.5732755342612,278.22712139543734,400.0849494258119,287.5439711314016,423.59662331736257,295.55645666738803C447.10829720891326,303.56894220337443,470.61997110046394,310.2770635393831,494.13164499201457,317.2842112054953C517.6433188835653,324.29135887160754,541.1549927751159,331.5975328678233,564.6988744391208,337.60080148918263C588.2427561031258,343.6040701105419,611.8188455395848,348.30443335704473,635.3627272035897,352.59744124135864C658.9066088675945,356.89044912567243,682.4182827591452,360.7761016477973,705.9299566506958,363.9133873579943C729.4416305422466,367.0506730681913,752.9533044337973,369.43959196646045,776.4649783253479,371.9170002126253C799.9766522168987,374.3944084587901,823.4883261084493,376.9603060528507,835.2441630542247,378.24325484988094L847,379.52620364691126"></path><path id="path-5" d="M0,65.76043832569775L11.788044718229521,66.98652537191768C23.576089436459043,68.21261241813761,47.152178872918086,70.66478651057747,70.69606053692296,73.36171233523072C94.23994220092781,76.05863815988397,117.75161609247851,79.0003157167506,141.2632899840292,82.38597516789444C164.7749638755799,85.77163461903827,188.2866377671306,89.6012759644593,211.79831165868129,93.73252152271164C235.30998555023197,97.86376708096395,258.82165944178263,102.29661685204758,282.3655411057875,107.23597000344087C305.9094227697924,112.17532315483415,329.4855122062515,117.6211796865371,353.02939387025634,122.88273448526381C376.5732755342612,128.1442892839905,400.0849494258119,133.22154234974093,423.59662331736257,137.60494762548123C447.10829720891326,141.98835290122156,470.61997110046394,145.67791038695174,494.13164499201457,149.50775982014918C517.6433188835653,153.33760925334656,541.1549927751159,157.3077506340112,564.6988744391208,160.57186203431692C588.2427561031258,163.83597343462264,611.8188455395848,166.39405485456945,635.3627272035897,168.7278812751832C658.9066088675945,171.0617076957969,682.4182827591452,173.17127911707757,705.9299566506958,174.89579716665767C729.4416305422466,176.62031521623774,752.9533044337973,177.9597798941173,776.4649783253479,179.34287453820494C799.9766522168987,180.72596918229263,823.4883261084493,182.15269379258845,835.2441630542247,182.86605609773633L847,183.57941840288424"></path></defs><text dy="0.5ex" class="label"><textPath xlink:href="#path-0" startOffset="5%" text-anchor="start" style="font-size: 11px; font-family: Arial, Helvetica; font-weight: normal;">TV</textPath></text><text dy="0.5ex" class="label"><textPath xlink:href="#path-1" startOffset="5%" text-anchor="start" style="font-size: 11px; font-family: Arial, Helvetica; font-weight: normal;">Radio</textPath></text><text dy="0.5ex" class="label"><textPath xlink:href="#path-2" startOffset="5%" text-anchor="start" style="font-size: 11px; font-family: Arial, Helvetica; font-weight: normal;">Newspapers</textPath></text><text dy="0.5ex" class="label"><textPath xlink:href="#path-3" startOffset="5%" text-anchor="start" style="font-size: 11px; font-family: Arial, Helvetica; font-weight: normal;">Magazines</textPath></text><text dy="0.5ex" class="label"><textPath xlink:href="#path-4" startOffset="5%" text-anchor="start" style="font-size: 11px; font-family: Arial, Helvetica; font-weight: normal;">Other</textPath></text><text dy="0.5ex" class="label"><textPath xlink:href="#path-5" startOffset="92%" text-anchor="end" style="font-size: 11px; font-family: Arial, Helvetica; font-weight: normal;">Pure-Play Internet</textPath></text></g></svg>